<svg width="137" height="24" viewBox="0 0 137 24" fill="none" xmlns="http://www.w3.org/2000/svg">
<path d="M4.00392 3.6761L10.3727 0L16.7415 3.6761L14.4 5.03415L10.3727 2.7161L6.34539 5.03415L4.00392 3.6761ZM16.7415 8.31219L14.4 6.95415L10.3727 9.2722L6.34539 6.95415L4.00392 8.31219V11.0283L8.03123 13.3463V17.9824L10.3727 19.3405L12.7142 17.9824V13.3463L16.7415 11.0283V8.31219ZM16.7415 15.6644V12.9483L14.4 14.3063V17.0224L16.7415 15.6644ZM18.4039 16.6244L14.3766 18.9424V21.6585L20.7454 17.9824V10.6302L18.4039 11.9883V16.6244ZM16.0625 5.99415L18.4039 7.35219V10.0683L20.7454 8.71024V5.99415L18.4039 4.6361L16.0625 5.99415ZM8.03123 19.9259V22.642L10.3727 24L12.7142 22.642V19.9259L10.3727 21.2839L8.03123 19.9259ZM4.00392 15.6644L6.34539 17.0224V14.3063L4.00392 12.9483V15.6644ZM8.03123 5.99415L10.3727 7.35219L12.7142 5.99415L10.3727 4.6361L8.03123 5.99415ZM2.34146 7.35219L4.68293 5.99415L2.34146 4.6361L0 5.99415V8.71024L2.34146 10.0683V7.35219ZM2.34146 11.9883L0 10.6302V17.9824L6.36877 21.6585V18.9424L2.34146 16.6244V11.9883Z" fill="#F0B90B"/>
<path d="M39.2049 15.0615V15.0234C39.2049 13.2298 38.2509 12.333 36.7053 11.7415C37.6594 11.2072 38.4608 10.3676 38.4608 8.86023V8.82207C38.4608 6.72316 36.7817 5.36841 34.0531 5.36841H27.8517V18.7251H34.2057C37.2205 18.7251 39.2049 17.5039 39.2049 15.0615ZM35.5414 9.35633C35.5414 10.3485 34.7209 10.7683 33.4234 10.7683H30.7139V7.94434H33.6142C34.8545 7.94434 35.5414 8.44045 35.5414 9.31817V9.35633ZM36.2855 14.699C36.2855 15.6912 35.5032 16.1492 34.2057 16.1492H30.7139V13.2107H34.1103C35.6177 13.2107 36.2855 13.764 36.2855 14.6608V14.699Z" fill="#F0B90B"/>
<path d="M53.6813 18.7251V5.36841H50.781V13.5923L44.5224 5.36841H41.8129V18.7251H44.7132V10.2341L51.1817 18.7251H53.6813Z" fill="#F0B90B"/>
<path d="M68.4316 15.0615V15.0234C68.4316 13.2298 67.4776 12.333 65.932 11.7415C66.8861 11.2072 67.6875 10.3676 67.6875 8.86023V8.82207C67.6875 6.72316 66.0084 5.36841 63.2798 5.36841H57.0785V18.7251H63.4324C66.4472 18.7251 68.4316 17.5039 68.4316 15.0615ZM64.7681 9.35633C64.7681 10.3485 63.9476 10.7683 62.6501 10.7683H59.9406V7.94434H62.8409C64.0812 7.94434 64.7681 8.44045 64.7681 9.31817V9.35633ZM65.5123 14.699C65.5123 15.6912 64.7299 16.1492 63.4324 16.1492H59.9406V13.2107H63.337C64.8444 13.2107 65.5123 13.764 65.5123 14.6608V14.699Z" fill="#F0B90B"/>
<path d="M86.1414 16.3656L84.634 14.8391C83.4891 15.9076 82.4397 16.5755 80.7987 16.5755C78.2419 16.5755 76.391 14.4384 76.391 11.8052C76.391 9.17205 78.2419 7.07314 80.7987 7.07314C82.3252 7.07314 83.4701 7.74098 84.5386 8.73319L86.046 6.99682C84.7676 5.77564 83.2792 4.91699 80.8178 4.91699C76.7726 4.91699 73.9296 8.02719 73.9296 11.8434C73.9296 15.6977 76.8299 18.7316 80.7224 18.7316C83.222 18.7316 84.7485 17.8157 86.1414 16.3656Z" fill="#F0B90B"/>
<path d="M97.519 12.8738V18.5027H99.866V5.14596H97.519V10.6985H91.146V5.14596H88.799V18.5027H91.146V12.8738H97.519Z" fill="#F0B90B"/>
<path d="M110.394 5.05056H108.219L102.342 18.5027H104.746L106.12 15.278H112.436L113.791 18.5027H116.271L110.394 5.05056ZM111.577 13.1981H106.979L109.268 7.85546L111.577 13.1981Z" fill="#F0B90B"/>
<path d="M118.886 5.14596V18.5027H121.233V5.14596H118.886Z" fill="#F0B90B"/>
<path d="M134.33 14.3812L127.174 5.14596H124.999V18.5027H127.308V9.00032L134.673 18.5027H136.639V5.14596H134.33V14.3812Z" fill="#F0B90B"/>
</svg>
